<svg   
  xmlns="http://www.w3.org/2000/svg"
  width="20"
  height="20"
  viewBox="0 0 20 20"
  fill="currentColor"
  stroke="currentColor"
  stroke-width="0"
  stroke-linecap="round"
  stroke-linejoin="round">
  <path fill-rule="evenodd" clip-rule="evenodd" d="M2.23984 6.17382C1.55525 6.17382 1.00025 6.71383 1 7.3801V9.43192V10.3969V12.4487C1.00025 13.1149 1.55525 13.655 2.23984 13.655C2.92442 13.655 3.47942 13.1149 3.47967 12.4487V10.3969V9.43192V7.3801C3.47942 6.71383 2.92442 6.17382 2.23984 6.17382ZM19.2609 7.3801C19.2606 6.71383 18.7056 6.17382 18.021 6.17382C17.3364 6.17382 16.7815 6.71383 16.7813 7.3801H16.7812V9.43192V10.3969V12.4487H16.7813C16.7815 13.1149 17.3364 13.655 18.021 13.655C18.7056 13.655 19.2606 13.1149 19.2609 12.4487V10.3969V9.43192V7.3801ZM4.4183 6.8598H4.47991H15.6186H15.6388V14.8145C15.6388 15.4782 15.0809 16.0212 14.399 16.0212H13.3541V16.7418V18.7937C13.3538 19.4599 12.7988 20 12.1143 20C11.4297 20 10.8747 19.4599 10.8744 18.7937V16.7418V16.0212H9.18269V16.7418V18.7937C9.18244 19.4599 8.62744 20 7.94285 20C7.25827 20 6.70327 19.4599 6.70304 18.7937V16.7418V16.0212H5.65814C4.97624 16.0212 4.4183 15.4782 4.4183 14.8145V6.8598ZM15.6182 6.20549V5.62382C15.602 5.45877 15.5763 5.29612 15.5417 5.13619C15.2347 3.72111 14.2203 2.52245 12.8289 1.82636L13.6848 0.289593C13.7379 0.194378 13.7015 0.0753514 13.6037 0.0237615C13.5059 -0.0279099 13.3836 0.00750713 13.3306 0.102696L12.4639 1.65906C11.7273 1.35094 10.9013 1.17801 10.0286 1.17801C9.14926 1.17801 8.31722 1.35338 7.57645 1.66588L6.70587 0.102696C6.65283 0.00750713 6.53057 -0.0279099 6.43274 0.0237615C6.33491 0.0753514 6.2986 0.194378 6.35163 0.289593L7.21205 1.83454C5.88581 2.50317 4.90452 3.62929 4.55652 4.9637C4.46623 5.30993 4.4183 5.67011 4.4183 6.04004C4.4183 6.09544 4.41978 6.15053 4.42191 6.20549H15.6182ZM7.46624 3.24905C7.75725 3.24905 7.99318 3.47865 7.99318 3.76191C7.99318 4.04514 7.75725 4.27473 7.46624 4.27473C7.17524 4.27473 6.93931 4.04514 6.93931 3.76191C6.93931 3.47865 7.17524 3.24905 7.46624 3.24905ZM12.5703 3.24905C12.8613 3.24905 13.0972 3.47865 13.0972 3.76191C13.0972 4.04514 12.8613 4.27473 12.5703 4.27473C12.2793 4.27473 12.0434 4.04514 12.0434 3.76191C12.0434 3.47865 12.2793 3.24905 12.5703 3.24905Z"/>
</svg>