<svg xmlns="http://www.w3.org/2000/svg" width="16" height="16" viewBox="0 0 16 16" fill="currentColor">
  <path d="M8 16C6.9 16 5.9 15.8 4.9 15.4C3.9 15 3.1 14.4 2.4 13.7C1.7 13 1.1 12.1 0.7 11.2C0.3 10.3 0 9.1 0 8C0 6.9 0.2 5.9 0.6 4.9C1 3.9 1.6 3.1 2.3 2.4C3 1.7 3.9 1.1 4.8 0.7C5.7 0.3 6.9 0 8 0C9.1 0 10.1 0.2 11.1 0.6C12.1 1 12.9 1.6 13.6 2.3C14.3 3 14.9 3.9 15.3 4.8C15.7 5.8 16 6.8 16 7.9C16 9 15.8 10 15.4 11C15 12 14.3 13.1 13.5 13.8C11.5 15.6 9.1 16 8 16ZM7.1 14.8V13.2C6.6 13.2 6.2 13 5.9 12.7C5.6 12.4 5.4 11.9 5.4 11.5V10.6L1.4 6.4C1.3 6.7 1.2 7.7 1.2 8C1.2 9.7 1.8 11.2 2.9 12.5C4 13.8 5.4 14.6 7.1 14.8ZM13 12.6C14.8 10.4 14.8 8.5 14.8 8C14.8 6.6 14.4 5.3 13.6 4.2C12.8 3.1 11.8 2.2 10.5 1.7V2C10.5 2.5 10.3 2.9 10 3.2C9.7 3.5 9.3 3.7 8.9 3.7H7.1V5.4C7.1 5.6 7 5.8 6.8 6C6.6 6.2 6.5 6.2 6.3 6.2H4.6V8H9.8C10 8 10.2 8.1 10.4 8.3C10.5 8.5 10.6 8.7 10.6 8.9V11.4H11.5C11.9 11.4 12.2 11.5 12.5 11.7C12.7 12 12.9 12.3 13 12.6Z"/>
</svg>