<svg xmlns="http://www.w3.org/2000/svg" width="20" height="20" viewBox="0 0 20 20" fill="currentColor" stroke-width="0" >
  <path fill-rule="evenodd" clip-rule="evenodd" d="M12.4256 3.6102C13.1073 2.86955 13.4493 2.06935 13.4493 1.21233V1.21232C13.4493 1.09865 13.4435 0.984075 13.4296 0.869507C12.9548 0.892059 12.4499 1.02377 11.9161 1.26194C11.3811 1.50372 10.94 1.8068 10.5932 2.17131C9.89843 2.89123 9.50722 3.77173 9.50722 4.59446C9.50722 4.70818 9.51519 4.81639 9.52894 4.9192C10.6079 4.99949 11.603 4.4907 12.4256 3.6102ZM16.1379 16.8221C16.5019 16.2718 16.816 15.6734 17.0814 15.0232C17.1908 14.7475 17.2938 14.4603 17.3913 14.1605C16.9417 13.9606 16.5376 13.6791 16.1758 13.315C15.3774 12.5304 14.9712 11.5422 14.9593 10.3548C14.9463 8.83028 15.5995 7.6419 16.92 6.79344C16.1823 5.68145 15.073 5.06423 13.5965 4.93787C13.0516 4.88882 12.3864 5.01334 11.5983 5.31408C10.765 5.63837 10.2734 5.80103 10.1283 5.80103C9.9343 5.80103 9.49177 5.66192 8.80258 5.3876C8.11144 5.1142 7.55528 4.97509 7.13117 4.97509C6.35608 4.98876 5.63634 5.20242 4.97022 5.62171C4.3041 6.04101 3.77188 6.61216 3.37182 7.33622C2.86278 8.23764 2.60864 9.31332 2.60864 10.5605C2.60864 11.6493 2.79714 12.7739 3.17315 13.9353C3.52424 15.0105 3.9724 15.9536 4.51751 16.767C5.02558 17.5286 5.44969 18.0662 5.78876 18.3798C6.32 18.9036 6.85222 19.1529 7.38618 19.1288C7.73727 19.1161 8.19648 18.9886 8.76651 18.7439C9.33567 18.5004 9.86778 18.3798 10.3639 18.3798C10.837 18.3798 11.3544 18.5004 11.9174 18.7439C12.4785 18.9886 12.9606 19.1093 13.3603 19.1093C13.9171 19.0955 14.4371 18.8531 14.9224 18.3798C15.2355 18.0915 15.6417 17.5722 16.1379 16.8221Z"/>
</svg>