<svg width="14" height="14" viewBox="0 0 14 14" fill="none" stroke="#C3C9E3" xmlns="http://www.w3.org/2000/svg">
<circle cx="7" cy="7" r="6" fill="#F9FAFE"  />
<path d="M6.30469 9.2373C6.30143 9.12012 6.2998 9.03223 6.2998 8.97363C6.2998 8.62858 6.34863 8.33073 6.44629 8.08008C6.5179 7.89128 6.63346 7.70085 6.79297 7.50879C6.91016 7.36882 7.12012 7.16536 7.42285 6.89844C7.72884 6.62826 7.92741 6.41341 8.01855 6.25391C8.1097 6.0944 8.15527 5.92025 8.15527 5.73145C8.15527 5.38965 8.02181 5.09017 7.75488 4.83301C7.48796 4.57259 7.16081 4.44238 6.77344 4.44238C6.39909 4.44238 6.08659 4.55957 5.83594 4.79395C5.58529 5.02832 5.4209 5.39453 5.34277 5.89258L4.43945 5.78516C4.52083 5.11784 4.76172 4.60677 5.16211 4.25195C5.56576 3.89714 6.09798 3.71973 6.75879 3.71973C7.45866 3.71973 8.01693 3.91016 8.43359 4.29102C8.85026 4.67188 9.05859 5.13249 9.05859 5.67285C9.05859 5.98535 8.98535 6.27344 8.83887 6.53711C8.69238 6.80078 8.40592 7.12142 7.97949 7.49902C7.69303 7.75293 7.50586 7.9401 7.41797 8.06055C7.33008 8.18099 7.26497 8.31934 7.22266 8.47559C7.18034 8.63184 7.15592 8.88574 7.14941 9.2373H6.30469ZM6.25098 11V9.99902H7.25195V11H6.25098Z" fill="#6F7AA8" stroke-width="0"/>
</svg>
