<svg xmlns="http://www.w3.org/2000/svg" width="14" height="15" viewBox="0 0 14 15" fill="none" stroke="currentColor" stroke-linecap="round" stroke-linejoin="round">
  <path d="M1 3.90289H2.33333H13" />
  <path d="M11.6666 3.90293V13.123C11.6666 13.4723 11.5261 13.8073 11.2761 14.0543C11.026 14.3013 10.6869 14.4401 10.3333 14.4401H3.66659C3.31296 14.4401 2.97382 14.3013 2.72378 14.0543C2.47373 13.8073 2.33325 13.4723 2.33325 13.123V3.90293M4.33325 3.90293V2.58578C4.33325 2.23645 4.47373 1.90143 4.72378 1.65441C4.97382 1.4074 5.31296 1.26863 5.66658 1.26863H8.33325C8.68687 1.26863 9.02601 1.4074 9.27606 1.65441C9.52611 1.90143 9.66658 2.23645 9.66658 2.58578V3.90293" />
  <path d="M5.66675 7.1958V11.1472" />
  <path d="M8.33325 7.1958V11.1472" />
</svg>